<svg width="31" height="17" viewBox="0 0 31 17" fill="none" xmlns="http://www.w3.org/2000/svg">
<path d="M0.894531 16.9996C1.09421 14.6218 1.82103 12.4329 3.075 10.4329C4.32897 8.43294 5.99826 6.84405 8.08288 5.66628L5.62021 1.39961C5.48709 1.19961 5.45381 0.988498 5.52037 0.766276C5.58693 0.544054 5.73114 0.377387 5.953 0.266276C6.13049 0.155165 6.33017 0.132943 6.55203 0.199609C6.77389 0.266276 6.95138 0.399609 7.0845 0.599609L9.54718 4.86628C11.4552 4.06628 13.452 3.66628 15.5375 3.66628C17.623 3.66628 19.6197 4.06628 21.5278 4.86628L23.9904 0.599609C24.1236 0.399609 24.3011 0.266276 24.5229 0.199609C24.7448 0.132943 24.9445 0.155165 25.1219 0.266276C25.3438 0.377387 25.488 0.544054 25.5546 0.766276C25.6211 0.988498 25.5879 1.19961 25.4547 1.39961L22.9921 5.66628C25.0776 6.84405 26.7469 8.43294 27.9999 10.4329C29.253 12.4329 29.9799 14.6218 30.1804 16.9996H0.894531ZM8.88159 13.3329C9.3475 13.3329 9.74153 13.1716 10.0637 12.8489C10.3858 12.5263 10.5464 12.1321 10.5456 11.6663C10.5447 11.2005 10.3836 10.8058 10.0623 10.4823C9.74109 10.1587 9.3475 9.99783 8.88159 9.99961C8.41568 10.0014 8.02165 10.1627 7.69951 10.4836C7.37736 10.8045 7.21673 11.1987 7.21762 11.6663C7.21851 12.1338 7.37958 12.5285 7.70084 12.8503C8.02209 13.1721 8.41568 13.3329 8.88159 13.3329ZM22.1934 13.3329C22.6593 13.3329 23.0533 13.1716 23.3754 12.8489C23.6976 12.5263 23.8582 12.1321 23.8573 11.6663C23.8564 11.2005 23.6954 10.8058 23.3741 10.4823C23.0529 10.1587 22.6593 9.99783 22.1934 9.99961C21.7274 10.0014 21.3334 10.1627 21.0113 10.4836C20.6891 10.8045 20.5285 11.1987 20.5294 11.6663C20.5303 12.1338 20.6913 12.5285 21.0126 12.8503C21.3339 13.1721 21.7274 13.3329 22.1934 13.3329Z" fill="white"/>
</svg>
