<svg width="21" height="24" viewBox="0 0 21 24" fill="none" xmlns="http://www.w3.org/2000/svg">
<path d="M17.5834 23.04C16.2789 24.3067 14.8545 24.1067 13.4834 23.5067C12.0324 22.8933 10.7012 22.8667 9.17037 23.5067C7.25348 24.3333 6.24179 24.0933 5.09698 23.04C-1.39916 16.3333 -0.440717 6.12 6.934 5.74667C8.73109 5.84 9.98239 6.73333 11.034 6.81333C12.6048 6.49333 14.109 5.57333 15.7863 5.69333C17.7964 5.85333 19.3139 6.65333 20.3123 8.09333C16.1591 10.5867 17.1441 16.0667 20.9513 17.6C20.1925 19.6 19.2074 21.5867 17.5701 23.0533L17.5834 23.04ZM10.9009 5.66667C10.7012 2.69333 13.1107 0.24 15.8795 0C16.2655 3.44 12.7646 6 10.9009 5.66667Z" fill="white"/>
</svg>
